# xmcd
#
# Track frame offsets:
#	150
#	16110
#	23090
#	30480
#	37697
#	44825
#	52700
#	60955
#	68112
#	74650
#	81932
#	88920
#	96425
#	103852
#	110590
#	117542
#	124305
#	131160
#	137680
#	145445
#	161155
#	168235
#	175187
#	181747
#	188637
#	195840
#	202600
#	209465
#	216392
#	222817
#	229965
#	236722
#	243422
#	258460
#	276795
#	292812
#
# Disc length: 4100 seconds
#
# Revision: 1
# Processed by: cddbd v1.5PL3 Copyright (c) Steve Scherf et al.
# Submitted via: CDex 1.50Beta5
#
DISCID=12100224
DTITLE=阪神タイガース私設応援団 - 阪神タイガース 選手別応援歌
DYEAR=2003
DGENRE=
TTITLE0=六甲おろし(応援団ヴァージョン)
TTITLE1=秀太選手ヒッティング・マーチ
TTITLE2=八木裕選手ヒッティング・マーチ
TTITLE3=沖原佳典選手ヒッティング・マーチ
TTITLE4=金本知憲選手ヒッティング・マーチ
TTITLE5=今岡誠選手ヒッティング・マーチ
TTITLE6=片岡篤史選手ヒッティング・マーチ
TTITLE7=藤本敦士選手ヒッティング・マーチ
TTITLE8=アリアス選手ヒッティング・マーチ
TTITLE9=桧山進次郎選手ヒッティング・マーチ
TTITLE10=濱中おさむ選手ヒッティング・マーチ
TTITLE11=広澤克実選手ヒッティング・マーチ
TTITLE12=上坂太一郎選手ヒッティング・マーチ
TTITLE13=関本健太郎選手ヒッティング・マーチ
TTITLE14=平下晃司選手ヒッティング・マーチ
TTITLE15=赤星憲広選手ヒッティング・マーチ
TTITLE16=高波文一選手ヒッティング・マーチ
TTITLE17=ヒッティング・マーチ一番
TTITLE18=ヒッティング・マーチ二番
TTITLE19=大阪タイガースの歌
TTITLE20=浅井良選手のテーマ
TTITLE21=野口寿浩選手のテーマ
TTITLE22=矢野輝弘選手のテーマ
TTITLE23=谷中真二選手のテーマ
TTITLE24=藪恵壹選手のテーマ
TTITLE25=藤田太陽選手のテーマ
TTITLE26=安藤優也選手のテーマ
TTITLE27=ムーア選手のテーマ
TTITLE28=川尻哲郎選手のテーマ
TTITLE29=福原忍選手のテーマ
TTITLE30=井川慶選手のテーマ
TTITLE31=藤川球児選手のテーマ
TTITLE32=阪神の星
TTITLE33=婦夫(めおと)阪神タイガース
TTITLE34=男一途の人生姿(はれすがた)
TTITLE35=六甲おろし(甲子園球場ヴァージョン)
EXTD=
EXTT0=
EXTT1=
EXTT2=
EXTT3=
EXTT4=
EXTT5=
EXTT6=
EXTT7=
EXTT8=
EXTT9=
EXTT10=
EXTT11=
EXTT12=
EXTT13=
EXTT14=
EXTT15=
EXTT16=
EXTT17=
EXTT18=
EXTT19=
EXTT20=
EXTT21=
EXTT22=
EXTT23=
EXTT24=
EXTT25=
EXTT26=
EXTT27=
EXTT28=
EXTT29=
EXTT30=
EXTT31=
EXTT32=
EXTT33=
EXTT34=
EXTT35=
PLAYORDER=
